<svg xmlns="http://www.w3.org/2000/svg" xmlns:xlink="http://www.w3.org/1999/xlink" width="1024" height="1024" viewBox="0 0 1024 1024"><defs><radialGradient id="a" cx="0.593" cy="0.594" r="0.743" gradientTransform="matrix(1, 0.009, -0.009, 1, 0.006, -0.006)" gradientUnits="objectBoundingBox"><stop offset="0" stop-color="#ff4757"/><stop offset="1" stop-color="#e84250"/></radialGradient><filter id="b" x="-33.5" y="-29.5" width="1099" height="1099" filterUnits="userSpaceOnUse"><feOffset dx="4" dy="8" input="SourceAlpha"/><feGaussianBlur stdDeviation="12.5" result="c"/><feFlood flood-opacity="0.522"/><feComposite operator="in" in2="c"/><feComposite in="SourceGraphic"/></filter><clipPath id="e"><rect width="1024" height="1024"/></clipPath></defs><g id="d" clip-path="url(#e)"><g transform="matrix(1, 0, 0, 1, 0, 0)" filter="url(#b)"><path d="M989.467,561.867c0-55.985,34.933-103.706,84.533-122.9a522.091,522.091,0,0,0-63.2-152.227A133.562,133.562,0,0,1,957.2,298.2a131.913,131.913,0,0,1-93.067-38.39C824.4,220.089,815.6,161.7,836.933,113.184A520.8,520.8,0,0,0,684.933,50a131.667,131.667,0,0,1-245.867,0A522.38,522.38,0,0,0,286.8,113.184,131.449,131.449,0,0,1,166.533,298.2a129.217,129.217,0,0,1-53.6-11.464A533.634,533.634,0,0,0,50,439.232a131.585,131.585,0,0,1,84.533,122.9,131.885,131.885,0,0,1-84.267,122.9,522.1,522.1,0,0,0,63.2,152.227,132.21,132.21,0,0,1,146.4,27.193c39.467,39.456,48.533,98.108,27.2,146.362A525.425,525.425,0,0,0,439.333,1074a131.428,131.428,0,0,1,245.333,0,522.377,522.377,0,0,0,152.267-63.183,131.652,131.652,0,0,1,173.6-173.555,525.138,525.138,0,0,0,63.2-152.227C1024.667,665.84,989.467,618.119,989.467,561.867ZM564.4,774.878c-118.133,0-213.333-95.708-213.333-213.278s95.2-213.278,213.333-213.278S777.733,444.031,777.733,561.6,682.533,774.878,564.4,774.878Z" transform="translate(-50 -50)" fill="url(#a)"/></g></g></svg>