<svg xmlns="http://www.w3.org/2000/svg" width="100" height="100" viewBox="0 0 100 100">
    <g transform="translate(-722 -302)">
        <path d="M-9080-994h-100v-100h100v100Zm-93.419-6.58h86.84v-86.841h-86.84Zm10.893-12.308,63.641-63.64,1.414,1.414-63.641,63.64Zm58.059-1.112v-15.807h4.32V-1014Zm-12.161,0v-17.607h-6.171v-3.671h16.824v3.671h-6.186V-1014Zm12.014-19.774a2.236,2.236,0,0,1,.684-1.6,2.233,2.233,0,0,1,1.624-.626,2.237,2.237,0,0,1,1.624.626,2.237,2.237,0,0,1,.685,1.6,2.238,2.238,0,0,1-.687,1.6,2.24,2.24,0,0,1-1.621.628,2.246,2.246,0,0,1-1.623-.626,2.252,2.252,0,0,1-.69-1.6Zm-55-17.838h-.006a.317.317,0,0,1-.058-.042h-.007a.247.247,0,0,1-.045-.064.012.012,0,0,0,0-.006v-.006h0v-.006a.279.279,0,0,1-.024-.132l0-.009a.314.314,0,0,1,.013-.068l1.338-4.546a.318.318,0,0,1,.1-.153l.013-.014.645-.643,13.4-13.4a.355.355,0,0,1,.5-.015l3.154,3.156a.354.354,0,0,1-.013.5l-12.037,12.029-.011.009-1.979,1.98a.161.161,0,0,0-.023.023l-.024.024a.316.316,0,0,1-.143.083l-4.551,1.34a.365.365,0,0,1-.089.012.3.3,0,0,1-.148-.05Zm1.1-2.419,1.188,1.187,2.337-.687-.332-1.164-1.182-.161-.161-1.181-1.163-.332Zm14.152-15.007h0l-9.3,9.3a.519.519,0,0,0-.022.732.52.52,0,0,0,.731-.022l9.3-9.3a.518.518,0,0,0,.022-.734.481.481,0,0,0-.339-.139h-.006a.544.544,0,0,0-.381.162Zm3.334,17.416a.67.67,0,0,1-.477-.2l-6.458-6.46,2.027-2.026.211.212a.23.23,0,0,0,.16.067.229.229,0,0,0,.161-.067l1.5-1.5,1.762,1.761-1.5,1.5a.23.23,0,0,0,0,.32l.482.481a.222.222,0,0,0,.159.067.236.236,0,0,0,.16-.067l1.5-1.5,1.762,1.761-1.5,1.5a.227.227,0,0,0-.066.161.228.228,0,0,0,.066.161l.48.48a.22.22,0,0,0,.16.065.223.223,0,0,0,.16-.065l1.5-1.5.962.961a.681.681,0,0,1,.2.48.68.68,0,0,1-.2.48l-2.725,2.724a.677.677,0,0,1-.48.2Zm-.477-.2Zm-17.938-17.94a.673.673,0,0,1-.2-.48.675.675,0,0,1,.2-.48l2.723-2.724a.674.674,0,0,1,.481-.2.671.671,0,0,1,.479.2l.8.8-1.5,1.5a.23.23,0,0,0,0,.321l.479.48a.225.225,0,0,0,.161.065.232.232,0,0,0,.162-.065l1.5-1.5,1.761,1.761-1.5,1.5a.216.216,0,0,0-.066.159.217.217,0,0,0,.065.161l.482.479a.221.221,0,0,0,.16.067.23.23,0,0,0,.16-.067l1.5-1.5,1.762,1.761-1.5,1.5a.222.222,0,0,0-.068.159.226.226,0,0,0,.068.161l.479.48a.215.215,0,0,0,.118.062l-2.053,2.055Zm19.845,1.485a.334.334,0,0,1-.232-.1l-3.153-3.154a.353.353,0,0,1,.015-.5l1.287-1.288a1.776,1.776,0,0,1,2.5-.076l1.212,1.214a1.769,1.769,0,0,1-.075,2.5l-1.285,1.29a.4.4,0,0,1-.266.111Zm-.232-.1Z" transform="translate(9902 1396)" fill="#fff"/>
    </g>
</svg>
